<svg xmlns="http://www.w3.org/2000/svg" xmlns:xlink="http://www.w3.org/1999/xlink" viewBox="80 -5 313.99 20.55"><defs><style>.cls-1{fill:url(#radial-gradient);}.cls-2{fill:#ee7a5f;}.cls-3{fill:#f9da97;}.cls-4{fill:url(#radial-gradient-2);}.cls-5{fill:#fbd437;}.cls-6{fill:#373a40;}.cls-6,.cls-7{stroke:#231f20;stroke-miterlimit:10;}.cls-7{fill:#d6d2c4;}</style><radialGradient id="radial-gradient" cx="52.78" cy="56.17" r="0.08" gradientTransform="translate(-0.57 -0.79)" gradientUnits="userSpaceOnUse"><stop offset="0" stop-color="#fff"/><stop offset="0.06" stop-color="#e7e4f1"/><stop offset="0.18" stop-color="#c0b7d9"/><stop offset="0.3" stop-color="#9f90c4"/><stop offset="0.42" stop-color="#8370b3"/><stop offset="0.55" stop-color="#6e58a6"/><stop offset="0.68" stop-color="#5f479d"/><stop offset="0.83" stop-color="#563c98"/><stop offset="1" stop-color="#533996"/></radialGradient><radialGradient id="radial-gradient-2" cx="52.78" cy="33.17" r="55.08" xlink:href="#radial-gradient"/><symbol id="Planet" data-name="Planet" viewBox="0 0 98.57 87.7"><path class="cls-1" d="M23,55.31A26,26,0,1,0,66.32,27.7"/><path class="cls-2" d="M92.15,15.74c-3-4.82-26,4.07-51.35,19.85S-2.68,68.07.33,72.9s26-4.07,51.34-19.86S95.16,20.56,92.15,15.74ZM49.94,50.26C32.68,61,17,67.05,15,63.77S25.28,49.12,42.54,38.38,75.45,21.59,77.49,24.87,67.2,39.52,49.94,50.26Z"/><path class="cls-3" d="M87.72,18.32c-2.55-4.1-23.23,4.16-46.18,18.44S2,66,4.6,70.06,27.82,65.9,50.78,51.62,90.28,22.42,87.72,18.32ZM50.55,51.24C28.72,64.83,9.09,72.74,6.71,68.92S20.09,51,41.93,37.39,83.39,15.88,85.77,19.71,72.38,37.65,50.55,51.24Z"/><path class="cls-4" d="M66.32,27.7A26,26,0,0,0,23,55.31"/><polygon class="cls-5" points="91.4 26.88 94.12 30.68 98.57 29.27 95.8 33.03 98.51 36.83 94.08 35.35 91.31 39.1 91.34 34.44 86.91 32.96 91.37 31.55 91.4 26.88"/><polygon class="cls-5" points="54.38 0 55.02 4.62 59.62 5.44 55.42 7.48 56.06 12.11 52.83 8.74 48.63 10.78 50.82 6.67 47.59 3.3 52.18 4.12 54.38 0"/><polygon class="cls-5" points="29.34 75.96 30.92 80.36 35.59 80.22 31.89 83.07 33.47 87.47 29.61 84.84 25.92 87.7 27.23 83.21 23.37 80.58 28.04 80.44 29.34 75.96"/></symbol></defs><g id="Layer_1" data-name="Layer 1"><ellipse class="cls-6" cx="150.99" cy="155.2" rx="156.49" ry="148.7"/><ellipse class="cls-6" cx="156.99" cy="219.98" rx="156.49" ry="135.06"/><ellipse class="cls-7" cx="155.69" cy="143.03" rx="142.21" ry="130.84"/></g><g id="Layer_2" data-name="Layer 2"><use width="98.57" height="25.7" transform="translate(64.44 51.14) scale(1.88 2.08)" xlink:href="#Planet"/></g></svg>